<?xml version="1.0" encoding="UTF-8" standalone="no"?>
<!-- Created with Inkscape (http://www.inkscape.org/) -->

<svg
   width="135.3062mm"
   height="134.46339mm"
   viewBox="0 0 135.3062 134.46339"
   version="1.1"
   id="svg1"
   xml:space="preserve"
   xmlns:inkscape="http://www.inkscape.org/namespaces/inkscape"
   xmlns:sodipodi="http://sodipodi.sourceforge.net/DTD/sodipodi-0.dtd"
   xmlns="http://www.w3.org/2000/svg"
   xmlns:svg="http://www.w3.org/2000/svg"><sodipodi:namedview
     id="namedview1"
     pagecolor="#505050"
     bordercolor="#eeeeee"
     borderopacity="1"
     inkscape:showpageshadow="0"
     inkscape:pageopacity="0"
     inkscape:pagecheckerboard="0"
     inkscape:deskcolor="#505050"
     inkscape:document-units="mm" /><defs
     id="defs1" /><g
     inkscape:label="Capa 1"
     inkscape:groupmode="layer"
     id="layer1"
     transform="translate(-6.0503346,-322.58507)"><path
       style="fill:#000000"
       d="m 44.951024,456.56922 c -4.090674,-1.09926 -7.167717,-4.54342 -7.975411,-8.92693 -0.574218,-3.1164 -0.207862,-4.25972 4.557046,-14.22162 2.32523,-4.86132 4.529421,-9.50724 4.898201,-10.32427 0.67051,-1.48551 0.67051,-1.48551 -4.905787,-10.41991 -5.576297,-8.9344 -5.576297,-8.9344 -5.576297,-15.42361 0,-6.48922 0,-6.48922 -1.657849,-4.89727 -2.545375,2.4442 -2.945825,2.43092 -6.171269,-0.20469 -1.078255,-0.88107 -1.960464,-1.52145 -1.960464,-1.42307 0,0.0984 1.127057,2.71837 2.504572,5.82218 3.799715,8.5615 3.84494,8.38005 -2.344931,9.40811 -2.176795,0.36154 -2.311625,0.26445 3.250988,2.34109 6.1533,2.29716 5.338657,1.57159 9.41276,8.38357 5.325631,8.90455 4.888807,9.76161 -4.282567,8.40247 C 10.786918,421.5415 2.1143819,405.12353 7.6696959,373.91421 c 1.550402,-8.71004 1.806126,-9.08808 5.7418281,-8.48814 25.113899,3.82826 40.42564,17.24887 41.496339,36.37119 0.176068,3.14451 0.176068,3.14451 0.782992,1.98438 0.606531,-1.15939 0.606933,-1.168 0.618881,-13.26151 0.01196,-12.10137 0.01196,-12.10137 -1.084236,-12.79336 -4.661962,-2.94297 -4.570866,-9.28217 0.17015,-11.84044 1.486425,-0.80208 34.590449,-1.04995 36.629269,-0.27426 5.08627,1.93511 5.90471,8.76964 1.40458,11.72922 -2.2396,1.4729 -2.16229,24.03075 0.0981,28.6145 1.48712,3.01571 1.48712,3.01571 2.1149,0.24319 3.41995,-15.10406 19.925271,-23.34253 39.260481,-19.59649 6.59917,1.27853 6.49735,1.16769 6.4424,7.01289 -0.21395,22.75955 -14.95969,38.36849 -31.37306,33.2096 -6.25704,-1.96665 -6.16967,-2.28196 3.60759,-13.02027 4.27533,-4.69556 7.73061,-8.58276 7.67841,-8.63824 -0.0522,-0.0555 -1.53616,0.51772 -3.2977,1.27375 -3.62939,1.5577 -4.4462,1.59413 -5.27264,0.23516 -0.48068,-0.79042 -0.48068,-0.79042 -1.73358,3.00181 -1.2529,3.79222 -1.2529,3.79222 -5.45988,7.89327 -2.31384,2.25557 -4.20397,4.22799 -4.2003,4.38316 0.004,0.15517 2.1347,4.73908 4.73561,10.18646 2.60091,5.44738 4.87815,10.54265 5.06053,11.32281 1.28324,5.48934 -2.1146,11.30618 -7.59277,12.99822 -2.3046,0.71182 -55.931456,0.81084 -58.546526,0.10811 z m 57.111326,-4.48557 c 2.35285,-0.69872 4.24058,-2.83327 4.6081,-5.21059 0.15339,-0.99219 0.15339,-0.99219 -13.732631,-0.99219 -16.254186,0 -15.220097,0.2115 -15.156406,-3.09985 0.04068,-2.11493 0.034,-2.13299 -2.012847,-5.44284 -1.922358,-3.10854 -1.496681,-3.15319 -3.697809,0.3879 -1.823976,2.93435 -1.838085,2.97144 -1.786265,4.69635 0.110636,3.68274 1.108638,3.45844 -15.388234,3.45844 -13.622546,0 -13.622546,0 -13.46916,0.99219 0.344254,2.22682 2.144409,4.48423 4.140055,5.19166 1.703987,0.60404 54.465387,0.62172 56.495197,0.0189 z M 65.846692,440.75476 c 0,-1.19374 0.742828,-2.72093 3.408957,-7.00849 2.676459,-4.30418 2.676459,-4.30418 2.676459,-7.32958 0,-3.0254 0,-3.0254 -1.419095,-3.0254 -5.856578,0 -10.462803,-3.38759 -11.6923,-8.59896 -0.867839,-3.67844 -0.272407,-4.6475 2.970985,-4.83526 6.00157,-0.34742 10.149999,1.36293 12.640677,5.21162 1.148458,1.77465 1.584782,1.93804 2.822272,1.05687 2.473664,-1.76141 10.219832,-2.45965 11.719192,-1.05638 1.47737,1.3827 0.55769,5.67637 -1.85375,8.6545 -1.93963,2.39543 -4.74219,3.7085 -8.573398,4.01683 -3.089532,0.24864 -3.08717,0.33822 0.14538,5.51385 2.460698,3.93982 3.359258,5.72062 3.683958,7.30099 0.14949,0.72761 0.14949,0.72761 11.64442,0.72761 11.494941,0 11.494941,0 11.001071,-1.12448 -0.27162,-0.61847 -4.28443,-8.98261 -8.917351,-18.58698 -8.4235,-17.4625 -8.4235,-17.4625 -8.50212,-30.36094 -0.0786,-12.89843 -0.0786,-12.89843 -3.37637,-12.89843 -3.29774,0 -3.29774,0 -3.29774,-2.10031 0,-2.1003 0,-2.1003 4.91826,-2.18281 5.43496,-0.0912 6.19424,-0.37404 6.19424,-2.30759 0,-2.20245 0.51851,-2.14054 -17.929141,-2.14054 -18.453472,0 -17.490907,-0.0916 -17.942482,1.7076 -0.551378,2.19687 0.82724,2.78164 6.569022,2.78641 4.696354,0.004 4.696354,0.004 4.696354,2.11266 0,2.10877 0,2.10877 -3.373438,2.18282 -3.373437,0.074 -3.373437,0.074 -3.505729,12.90634 -0.132291,12.83229 -0.132291,12.83229 -8.694137,30.69166 -4.709015,9.82266 -8.730432,18.1868 -8.936481,18.58698 -0.374637,0.72761 -0.374637,0.72761 11.273824,0.72761 11.648461,0 11.648461,0 11.648461,-0.6282 z M 49.37638,439.11734 c -0.982266,-0.50418 -1.785937,-0.97721 -1.785937,-1.0512 0,-0.074 0.476921,-1.08306 1.059825,-2.2424 1.059826,-2.10789 1.059826,-2.10789 3.018055,-1.13893 1.95823,0.96895 1.95823,0.96895 0.865585,3.17209 -0.600954,1.21173 -1.155407,2.19728 -1.232117,2.19013 -0.07671,-0.007 -0.943145,-0.42552 -1.925411,-0.92969 z m 4.497916,-8.99584 c -2.148803,-1.10292 -2.201911,-0.33608 0.381947,-5.51506 2.167883,-4.34522 2.167883,-4.34522 4.034895,-3.41063 1.026857,0.51403 1.903074,0.96662 1.94715,1.00577 0.116835,0.10376 -4.280865,8.86503 -4.442043,8.84961 -0.07481,-0.007 -0.939683,-0.42551 -1.921949,-0.92969 z m 17.574502,-29.61244 c -4.753854,-1.48356 -7.072303,-6.97422 -4.873278,-11.54114 3.268044,-6.78704 6.67966,-10.82661 8.434326,-9.98676 1.000794,0.47901 6.557903,9.27215 7.152893,11.31819 1.83955,6.32576 -4.327645,12.2027 -10.713941,10.20971 z m 4.664374,-4.82013 c 2.193371,-1.63759 2.313675,-3.35294 0.445595,-6.35349 -0.705302,-1.13288 -1.528818,-2.50528 -1.830034,-3.04978 -0.301217,-0.5445 -0.607198,-0.9867 -0.679959,-0.98265 -0.257258,0.0143 -3.27612,5.12922 -3.625055,6.14201 -1.147186,3.32973 2.885197,6.33759 5.689453,4.24391 z m 5.513947,26.95956 c 2.57572,-1.32039 3.86563,-3.75589 1.98803,-3.75364 -2.61432,0.003 -5.164546,1.37363 -6.345146,3.40992 -0.67396,1.16243 -0.67396,1.16243 1.293551,1.03401 1.272949,-0.0831 2.354435,-0.32677 3.063565,-0.69029 z m 37.307461,0.49592 c 9.9466,-1.88633 17.23594,-13.32312 17.9997,-28.24107 0.18957,-3.70277 0.49598,-3.42726 -4.67074,-4.1998 -15.85135,-2.37013 -28.37535,3.68031 -32.06286,15.48983 -0.636001,2.03686 -0.946091,9.9486 -0.410891,10.4835 0.1148,0.11474 1.500801,-1.09579 3.080011,-2.69005 2.87127,-2.89865 2.87127,-2.89865 5.05582,-9.49815 2.36487,-7.14424 2.73637,-7.8203 4.2973,-7.8203 1.24975,0 1.90539,0.80944 2.80215,3.45947 0.51061,1.50892 0.87557,2.20828 1.12967,2.16472 0.20645,-0.0354 3.28346,-1.31532 6.83779,-2.84427 6.79497,-2.92296 7.46368,-3.09976 8.53545,-2.2567 1.85273,1.45735 1.82169,1.50254 -9.81627,14.2883 -5.58168,6.13219 -10.10606,11.18994 -10.05416,11.23944 0.57808,0.55146 5.19008,0.82086 7.27703,0.42508 z m -84.775248,-5.76573 c -2.047014,-3.36677 -2.047014,-3.36677 -10.645972,-6.58283 -9.056499,-3.38718 -9.628274,-3.65917 -9.890749,-4.70495 -0.515358,-2.05335 0.522324,-2.61404 6.717187,-3.62946 2.836866,-0.465 5.246332,-0.92193 5.354371,-1.01538 0.108038,-0.0935 -1.528666,-4.04727 -3.637122,-8.78624 -4.487485,-10.08609 -4.451631,-9.96796 -3.357492,-11.06209 1.468959,-1.46896 1.695175,-1.36349 8.114189,3.78309 4.491009,3.60077 4.491009,3.60077 7.433853,0.69729 3.315254,-3.27091 4.181123,-3.62259 5.549664,-2.25405 0.649432,0.64943 0.649432,0.64943 0.649432,9.70721 0,9.05778 0,9.05778 3.87488,15.29171 4.844554,7.79395 4.425335,7.3592 4.948704,5.1321 2.887899,-12.28887 0.538776,-23.06563 -6.671789,-30.60728 -5.808114,-6.07481 -18.073806,-11.81603 -28.364449,-13.27659 -1.388166,-0.19702 -1.320455,-0.36189 -2.349556,5.72076 -4.5435281,26.85517 1.751148,40.24129 20.889294,44.42271 3.809524,0.83232 3.723262,1.00889 1.385555,-2.836 z m 37.060047,1.00219 c -0.23306,-0.89122 -1.890665,-2.59475 -3.089507,-3.1751 -1.508933,-0.73046 -4.66443,-1.06289 -4.66443,-0.4914 0,0.64596 1.464846,2.47254 2.491959,3.10733 1.904013,1.17675 5.524076,1.56144 5.261978,0.55917 z m 43.508001,-42.37266 c -6.73169,-1.58654 -9.1529,-10.02618 -4.27559,-14.90349 4.10017,-4.10017 11.19997,-3.13629 13.93675,1.89208 3.69646,6.79161 -2.22342,14.76435 -9.66116,13.01141 z m 4.04655,-4.81993 c 1.32371,-0.7 2.37068,-2.38106 2.37068,-3.80648 0,-3.88836 -4.82194,-5.89648 -7.56709,-3.15134 -3.59514,3.59514 0.69432,9.33858 5.19641,6.95782 z M 73.591026,360.5108 c -1.413055,-0.30118 -1.658918,-1.13165 -1.658918,-5.60347 0,-4.11886 0,-4.11886 6.277715,-10.41654 6.277716,-6.29768 6.277716,-6.29768 3.702386,-8.88271 -2.575329,-2.58503 -2.575329,-2.58503 -1.04383,-4.10055 1.5315,-1.51552 1.5315,-1.51552 2.96558,-0.0634 1.43408,1.45212 1.43408,1.45212 5.70953,-2.77412 4.90106,-4.84467 6.30742,-5.72699 9.56352,-5.99997 7.682661,-0.64409 13.157701,7.39314 9.833021,14.43465 -0.38368,0.81263 -2.0477,2.71047 -4.95861,5.6554 -4.381151,4.43234 -4.381151,4.43234 -2.94152,5.89008 1.43963,1.45774 1.43963,1.45774 -0.0746,2.97194 -1.514201,1.5142 -1.514201,1.5142 -3.967751,-0.92914 -1.34944,-1.34384 -2.56943,-2.44334 -2.71108,-2.44334 -0.14165,0 -3.02745,2.7682 -6.41289,6.15156 -6.15535,6.15156 -6.15535,6.15156 -9.923946,6.19346 -2.072728,0.023 -4.034115,-0.0147 -4.358637,-0.0838 z m 11.898673,-9.81141 c 3.02082,-3.01826 5.49241,-5.61131 5.49241,-5.76233 0,-0.15103 -0.77677,-1.04445 -1.72614,-1.98539 -1.72615,-1.7108 -1.72615,-1.7108 -7.40834,3.98883 -5.682188,5.69962 -5.682188,5.69962 -5.682188,7.47313 0,1.7735 0,1.7735 1.915921,1.7735 1.915917,0 1.915917,0 7.408337,-5.48774 z m 15.060121,-10.85028 c 2.12096,-2.14643 4.0119,-4.20026 4.20207,-4.56406 1.90588,-3.64586 -0.90291,-8.21416 -5.038531,-8.1948 -1.80456,0.008 -3.14972,0.93412 -7.20849,4.96051 -3.91227,3.88107 -3.91227,3.88107 -0.009,7.79101 2.14689,2.15047 3.9696,3.90994 4.05047,3.90994 0.0809,0 1.88237,-1.75617 4.003331,-3.9026 z m -82.592709,7.2099 c 0,-2.24896 0,-2.24896 -2.248958,-2.24896 -2.248959,0 -2.248959,0 -2.248959,-2.11667 0,-2.11667 0,-2.11667 2.248959,-2.11667 2.248958,0 2.248958,0 2.248958,-2.24895 0,-2.24896 0,-2.24896 2.248958,-2.24896 2.248958,0 2.248958,0 2.248958,2.24896 0,2.24895 0,2.24895 2.248958,2.24895 2.248959,0 2.248959,0 2.248959,2.11667 0,2.11667 0,2.11667 -2.248959,2.11667 -2.248958,0 -2.248958,0 -2.248958,2.24896 0,2.24895 0,2.24895 -2.248958,2.24895 -2.248958,0 -2.248958,0 -2.248958,-2.24895 z m 30.184387,1.82876 c -8.198694,-2.20432 -12.315406,-11.95313 -8.172686,-19.35379 5.929042,-10.59178 21.618829,-8.50028 24.690141,3.29129 2.493814,9.5744 -6.850702,18.66153 -16.517455,16.0625 z m 6.702263,-4.62111 c 5.169292,-1.93408 7.252475,-8.21173 4.31858,-13.01399 -4.777364,-7.81969 -16.762868,-3.97279 -16.272921,5.223 0.323459,6.07099 6.241976,9.92826 11.954341,7.79099 z m -9.899152,-8.32015 c 0,-2.24896 0,-2.24896 2.248959,-2.24896 2.248958,0 2.248958,0 2.248958,2.24896 0,2.24896 0,2.24896 -2.248958,2.24896 -2.248959,0 -2.248959,0 -2.248959,-2.24896 z m 87.521631,-2.31511 c -0.0768,-2.18281 -0.0768,-2.18281 -2.25965,-2.25966 -2.18282,-0.0768 -2.18282,-0.0768 -2.18282,-2.18281 0,-2.10596 0,-2.10596 2.24896,-2.10596 2.24896,0 2.24896,0 2.24896,-2.24896 0,-2.24896 0,-2.24896 2.11667,-2.24896 2.11666,0 2.11666,0 2.11666,2.24896 0,2.24896 0,2.24896 2.24896,2.24896 2.24896,0 2.24896,0 2.24896,2.10596 0,2.10597 0,2.10597 -2.18281,2.18281 -2.18282,0.0769 -2.18282,0.0769 -2.25966,2.25966 -0.0768,2.18282 -0.0768,2.18282 -2.17211,2.18282 -2.09527,0 -2.09527,0 -2.17212,-2.18282 z"
       id="path1" /></g></svg>
