<?xml version="1.0" encoding="UTF-8" standalone="no"?>
<!-- Created with Inkscape (http://www.inkscape.org/) -->

<svg
   width="135.38274mm"
   height="135.34702mm"
   viewBox="0 0 135.38274 135.34702"
   version="1.1"
   id="svg1"
   xml:space="preserve"
   xmlns:inkscape="http://www.inkscape.org/namespaces/inkscape"
   xmlns:sodipodi="http://sodipodi.sourceforge.net/DTD/sodipodi-0.dtd"
   xmlns="http://www.w3.org/2000/svg"
   xmlns:svg="http://www.w3.org/2000/svg"><sodipodi:namedview
     id="namedview1"
     pagecolor="#505050"
     bordercolor="#eeeeee"
     borderopacity="1"
     inkscape:showpageshadow="0"
     inkscape:pageopacity="0"
     inkscape:pagecheckerboard="0"
     inkscape:deskcolor="#505050"
     inkscape:document-units="mm" /><defs
     id="defs1" /><g
     inkscape:label="Capa 1"
     inkscape:groupmode="layer"
     id="layer1"
     transform="translate(-26.961075,-58.255343)"><path
       style="fill:#000000"
       d="m 60.256615,193.41444 c -2.816867,-0.58979 -5.998765,-2.84006 -7.597965,-5.37335 -3.345257,-5.29923 -1.772363,-12.67191 3.441803,-16.13287 2.318781,-1.53912 4.398532,-2.10747 7.19887,-1.96731 3.818195,0.19112 6.776112,1.69568 8.86305,4.50823 l 0.92555,1.24736 h 21.564524 21.564523 l 0.92555,-1.24736 c 2.08694,-2.81255 5.04486,-4.31711 8.86305,-4.50823 2.80034,-0.14016 4.88009,0.42819 7.19887,1.96731 7.46958,4.95802 6.69852,16.51614 -1.36537,20.46672 -5.15614,2.52605 -11.53056,1.04455 -14.82689,-3.44595 l -0.97355,-1.32624 H 94.662087 73.285549 l -1.106124,1.43375 c -1.279575,1.65856 -3.247102,3.09785 -5.314264,3.88748 -1.655437,0.63236 -4.811944,0.86663 -6.608546,0.49046 z m 5.884979,-4.45578 c 2.799143,-1.35504 4.548469,-4.17419 4.535373,-7.30903 -0.01311,-3.13932 -1.585805,-5.61268 -4.472418,-7.03376 -1.581321,-0.77848 -1.858685,-0.8311 -3.791114,-0.71923 -1.690208,0.0978 -2.354772,0.27209 -3.509957,0.92027 -3.514102,1.9718 -5.006999,6.38189 -3.41199,10.07919 0.765254,1.77389 3.003793,3.87192 4.717429,4.42134 1.684967,0.54022 4.416867,0.37501 5.932677,-0.35878 z m 62.843686,0.35808 c 1.82559,-0.54214 4.02283,-2.55394 4.82812,-4.42064 1.59501,-3.6973 0.10212,-8.10739 -3.41199,-10.07919 -1.15518,-0.64818 -1.81974,-0.82243 -3.50995,-0.92027 -1.93297,-0.1119 -2.20954,-0.0594 -3.79361,0.72046 -2.91414,1.43463 -4.5084,3.98223 -4.48366,7.16482 0.0264,3.3994 2.31934,6.56614 5.46569,7.54864 1.52694,0.47681 3.26982,0.4719 4.9054,-0.0138 z m -14.32726,-7.66711 0.0174,-1.98438 H 94.652417 74.629419 l 0.01743,1.98438 0.01743,1.98437 H 94.652417 114.64056 Z M 37.241108,165.58955 c -3.590661,-0.40476 -7.38416,-3.11839 -9.033217,-6.46181 -3.554867,-7.20738 0.910842,-15.75741 8.896453,-17.03312 4.299412,-0.68684 9.404192,1.48635 11.515337,4.90225 l 0.567593,0.91839 h 45.465173 45.465173 l 0.56759,-0.91839 c 0.82685,-1.33787 2.82127,-3.01348 4.59457,-3.8601 7.1488,-3.41307 15.56524,0.97699 16.90863,8.81963 0.82924,4.84108 -1.72512,9.9905 -6.10806,12.31341 -2.01032,1.06545 -3.3953,1.40193 -5.77048,1.40193 -3.6381,0 -7.35968,-1.84113 -9.36448,-4.63277 l -0.87432,-1.21746 H 112.85182 85.632558 l -0.64943,-0.64944 c -0.827688,-0.82769 -0.827688,-1.84219 0,-2.66988 l 0.64943,-0.64943 h 26.470362 26.47036 v -1.98438 -1.98437 H 94.652447 50.731615 v 1.98437 1.98438 h 13.505776 13.505776 l 0.649432,0.64943 c 0.827689,0.82769 0.827689,1.84219 0,2.66988 l -0.649432,0.64944 H 63.488493 49.23382 l -0.861068,1.19901 c -2.380942,3.3154 -6.662556,5.07281 -11.131644,4.56903 z m 4.89155,-4.55428 c 2.934409,-1.33092 4.385559,-3.48603 4.577269,-6.79771 0.101482,-1.75303 0.02771,-2.22881 -0.53677,-3.4618 -0.904682,-1.97608 -2.092354,-3.23903 -3.858633,-4.10319 -2.107182,-1.03095 -4.855169,-1.03239 -6.84604,-0.004 -4.834268,2.49814 -6.067727,8.44177 -2.56125,12.34182 2.534789,2.81929 5.862824,3.54962 9.225424,2.02448 z m 111.593332,0.0463 c 1.76824,-0.75102 3.67629,-2.9044 4.2832,-4.83393 1.60403,-5.09963 -2.20728,-10.3143 -7.52966,-10.30219 -2.15994,0.005 -3.3663,0.41739 -5.00181,1.71019 -1.79328,1.41751 -2.93623,3.72515 -2.93422,5.92428 0.002,2.08066 0.34184,3.25827 1.39472,4.83163 0.94595,1.41357 3.04252,2.82688 4.79779,3.23421 1.41792,0.32904 3.41982,0.10269 4.98998,-0.56419 z M 59.755132,137.44238 c -8.784522,-2.36229 -11.820974,-13.30969 -5.490221,-19.79405 5.082575,-5.20589 13.770017,-4.64084 18.037935,1.17323 l 0.96342,1.31244 h 21.386181 21.386183 l 0.96342,-1.31244 c 4.26262,-5.80684 12.80571,-6.38323 17.97612,-1.21282 4.53566,4.53565 4.56217,12.14149 0.058,16.62918 -5.24057,5.22134 -13.75576,4.67844 -18.03409,-1.14981 l -0.96342,-1.31244 H 94.652447 73.266266 l -0.96342,1.31244 c -2.819764,3.84129 -7.899828,5.60415 -12.547714,4.35427 z m 5.782577,-4.05085 c 2.033175,-0.77255 3.319647,-1.94728 4.289143,-3.91661 1.209896,-2.45765 1.209896,-4.58252 0,-7.04017 -2.968274,-6.02942 -11.451206,-5.84883 -14.278847,0.30397 -2.895096,6.29959 3.499667,13.11883 9.989704,10.65281 z m 63.877481,-0.0399 c 4.14411,-1.55052 6.19857,-6.57247 4.3417,-10.61294 -2.13658,-4.64909 -7.697,-6.14071 -11.94153,-3.20339 -1.42177,0.9839 -2.50221,2.67422 -3.00081,4.69469 -0.38976,1.57942 -0.3902,1.86842 -0.005,3.42837 0.23122,0.93695 0.73764,2.18294 1.12539,2.76886 1.98254,2.99583 5.98763,4.23126 9.4805,2.92441 z m -14.75189,-7.39682 v -2.11664 H 94.652447 74.641592 v 2.11667 2.11666 H 94.652447 114.6633 Z M 36.740829,109.7816 c -4.735835,-0.78661 -8.783616,-4.92018 -9.624344,-9.828319 -0.829243,-4.84109 1.725121,-9.9905 6.108062,-12.31342 2.010312,-1.06544 3.395295,-1.40192 5.770478,-1.40192 3.638095,0 7.359676,1.84113 9.364479,4.63277 l 0.874316,1.21746 27.537959,0.008 c 29.558801,0.009 28.156921,-0.0568 28.690831,1.3475 0.29813,0.78414 -0.20617,2.18218 -0.8805,2.44095 -0.24637,0.0945 -12.463513,0.17189 -27.149219,0.17189 H 50.731615 v 1.98437 1.984379 h 43.920832 43.920833 v -1.984379 -1.98437 h -13.0612 c -12.81302,0 -13.07443,-0.0104 -13.75833,-0.54837 -0.96411,-0.75837 -0.96411,-2.11364 0,-2.87201 0.68506,-0.53887 0.93657,-0.54837 14.50723,-0.54837 h 13.81009 l 0.87432,-1.21747 c 2.0048,-2.79163 5.72638,-4.63276 9.36448,-4.63276 3.44854,0 6.22109,1.14397 8.62923,3.56049 6.76398,6.78749 2.82474,18.488879 -6.73855,20.016619 -4.29941,0.68684 -9.40419,-1.48634 -11.51534,-4.90225 l -0.56759,-0.91838 H 94.652447 49.187274 l -0.567593,0.91838 c -1.358801,2.19859 -4.362021,4.14662 -7.378386,4.78597 -1.955266,0.41443 -2.44929,0.42353 -4.500466,0.0828 z m 5.704461,-4.60932 c 1.641357,-0.80203 2.841358,-2.10198 3.727867,-4.03837 1.284901,-2.806589 0.384541,-7.034929 -1.911649,-8.977619 -3.467456,-2.93365 -8.236515,-2.66115 -11.256492,0.64318 -2.600152,2.84498 -2.823028,6.77926 -0.561713,9.915519 2.261499,3.13651 6.487266,4.1747 10.001987,2.45729 z m 111.29378,0.0687 c 3.6202,-1.65738 5.43302,-5.657529 4.31181,-9.514359 -0.56874,-1.95638 -2.51829,-4.12756 -4.45718,-4.96386 -3.72958,-1.60868 -8.18217,-0.0817 -10.11451,3.4686 -0.8754,1.60841 -1.21195,4.55692 -0.69791,6.114469 1.53971,4.66536 6.5605,6.90829 10.95779,4.89515 z M 59.727448,81.688911 c -6.793601,-1.9336 -10.497457,-9.10018 -8.113151,-15.69811 1.331165,-3.68365 4.87415,-6.6947 8.848832,-7.52029 4.260057,-0.88487 9.271952,1.02598 11.82959,4.51018 l 0.973547,1.32623 h 21.386181 21.386183 l 0.97355,-1.32623 c 2.55763,-3.4842 7.56953,-5.39505 11.82958,-4.51018 3.94411,0.81924 7.52791,3.86498 8.84884,7.52029 2.45806,6.80202 -1.65543,14.30492 -8.66716,15.80867 -1.88718,0.40472 -5.0868,0.16097 -6.85433,-0.52217 -1.85995,-0.71888 -3.84807,-2.22848 -5.02659,-3.81677 l -0.92555,-1.24736 H 94.652447 73.087923 l -0.92555,1.24736 c -1.167949,1.57404 -3.102656,3.04214 -5.005205,3.79805 -1.808508,0.71856 -5.637806,0.94035 -7.42972,0.43033 z m 6.851085,-4.55995 c 4.671976,-2.54281 5.546767,-8.87099 1.744448,-12.61923 -4.666053,-4.59969 -12.400809,-1.88068 -13.482181,4.73941 -0.39806,2.4369 1.193761,5.99903 3.305221,7.39633 1.707772,1.13015 2.858381,1.43632 5.031147,1.33876 1.590613,-0.0714 2.279407,-0.24462 3.401365,-0.85527 z m 63.822877,-0.0362 c 3.51411,-1.9718 5.007,-6.38189 3.41199,-10.07919 -0.83644,-1.93891 -3.00765,-3.88846 -4.96395,-4.45717 -5.12108,-1.48874 -10.19025,2.26043 -10.23705,7.57135 -0.0303,3.4356 2.01099,6.33534 5.33013,7.57176 0.64703,0.24103 1.7219,0.34197 3.0193,0.28355 1.64759,-0.0742 2.27419,-0.23639 3.43958,-0.8903 z m -15.74339,-6.83272 -0.0174,-1.98438 H 94.652447 74.664309 l -0.01743,1.98438 -0.01743,1.98437 h 20.022998 20.023003 z"
       id="path1" /></g></svg>
