<?xml version="1.0" encoding="UTF-8" standalone="no"?>
<!-- Created with Inkscape (http://www.inkscape.org/) -->

<svg
   width="135.27684mm"
   height="135.27652mm"
   viewBox="0 0 135.27684 135.27652"
   version="1.1"
   id="svg1"
   xml:space="preserve"
   xmlns:inkscape="http://www.inkscape.org/namespaces/inkscape"
   xmlns:sodipodi="http://sodipodi.sourceforge.net/DTD/sodipodi-0.dtd"
   xmlns="http://www.w3.org/2000/svg"
   xmlns:svg="http://www.w3.org/2000/svg"><sodipodi:namedview
     id="namedview1"
     pagecolor="#505050"
     bordercolor="#eeeeee"
     borderopacity="1"
     inkscape:showpageshadow="0"
     inkscape:pageopacity="0"
     inkscape:pagecheckerboard="0"
     inkscape:deskcolor="#505050"
     inkscape:document-units="mm" /><defs
     id="defs1" /><g
     inkscape:label="Capa 1"
     inkscape:groupmode="layer"
     id="layer1"
     transform="translate(-3.149685,1.3217662)"><path
       style="fill:#050503;stroke:none"
       d="m 87.471767,9.4458282 c -0.627254,-1.723135 -1.786734,-4.256862 -3.224004,-5.44131 -1.18469,-0.976297 -2.917561,-0.381122 -3.075376,1.208994 -0.196386,1.978747 3.381346,4.8105188 2.589486,6.4373808 -0.45445,0.933672 -1.888382,1.620113 -2.640112,2.316736 -1.634227,1.514434 -2.999542,3.840568 -4.763517,5.124267 -1.845253,1.342844 -6.840002,-5.418306 -8.257615,-1.174299 -0.774505,2.318681 4.227572,4.417955 5.877382,5.02198 -0.556595,2.343316 -1.690837,4.499951 -2.206083,6.879166 -0.238293,1.100345 -0.08771,2.952574 -0.711681,3.884639 -1.149054,1.716416 -5.150796,-0.02741 -6.843033,0.925226 -1.42799,0.803883 -1.244777,2.852329 0.247433,3.460407 1.799575,0.733337 4.67551,0.196395 6.602948,0.196395 l -2.116667,14.287499 c -2.047856,-0.585421 -4.445311,-2.615554 -6.61336,-2.337971 -1.497877,0.191776 -2.177531,1.896913 -1.187153,3.059043 1.245213,1.461159 4.203547,2.257606 5.94843,2.983094 -2.69319,4.384576 -5.88171,8.866302 -10.31875,11.641662 -0.614554,-1.62138 -2.043738,-4.34841 -3.488579,-5.35964 -1.207932,-0.84542 -2.912176,-0.10501 -3.037807,1.39191 -0.172566,2.05618 2.394916,4.624484 3.351387,6.348984 l -14.816666,4.23334 c 0,-1.92744 0.536942,-4.80338 -0.196395,-6.602954 -0.608086,-1.49221 -2.656524,-1.67542 -3.460409,-0.24743 -1.013117,1.799664 0.73997,5.210834 -0.736177,6.690734 -0.531939,0.53329 -1.529921,0.46329 -2.221602,0.58695 -1.898021,0.33929 -3.923228,1.53761 -5.810218,1.63138 -2.582739,0.12834 -3.216116,-7.81183 -6.564769,-5.30167 -2.685703,2.01322 1.992003,5.29452 1.945587,7.45244 -0.01718,0.79866 -0.938135,1.28554 -1.477054,1.73408 -1.58821,1.32185 -2.745874,3.3038 -4.355825,4.52057 -2.247798,1.69885 -5.817454,-4.7806 -8.1473695,-1.67242 -2.215483,2.95552 4.1671535,4.11505 5.1444715,5.81674 0.414187,0.72119 -0.07569,1.62275 -0.313172,2.32491 -0.63723,1.88407 -0.689671,4.28742 -1.482361,6.04622 -1.1194705,2.48386 -8.2545765,-1.23099 -7.9542395,2.948799 0.28812,4.00977 7.1288545,-0.0707 8.0326345,2.92675 0.467739,1.55126 2.297694,6.47783 1.824727,7.89421 -0.670025,2.0065 -7.5813285,2.94544 -5.2520605,6.05276 2.013218,2.6857 5.2945025,-1.99201 7.4524295,-1.94559 0.798668,0.0172 1.285542,0.93814 1.734082,1.47705 1.246206,1.49732 3.816816,2.90232 4.672061,4.57714 1.175332,2.30163 -4.866272,5.64548 -1.823911,7.92606 3.348649,2.51017 3.982036,-5.43002 6.564769,-5.30167 1.886992,0.0938 3.912195,1.29209 5.810218,1.63139 0.691683,0.12365 1.689661,0.0537 2.221602,0.58694 1.476147,1.47991 -0.27694,4.89107 0.736177,6.69074 0.803885,1.42798 2.852327,1.24478 3.460409,-0.24744 0.733333,-1.79957 0.196395,-4.67551 0.196395,-6.60295 l 12.170832,-0.52916 c 0.01437,1.73602 0.129329,8.92452 3.410798,7.3136 2.122214,-1.04182 0.718424,-6.06237 0.293369,-7.84277 2.566041,-0.48347 5.137699,-0.92103 7.672916,-1.55401 1.031615,-0.25758 2.6097,-0.99565 3.668849,-0.79601 1.957826,0.36904 1.612979,4.94013 3.056588,6.12238 1.20507,0.98689 3.06463,0.12252 3.158262,-1.39213 0.118968,-1.92453 -1.17748,-4.61478 -1.946199,-6.34898 3.821205,-0.90553 7.992163,-2.78721 11.377082,-4.7625 0.745306,1.79016 1.726626,4.42736 3.231346,5.7059 1.17499,0.99838 2.911634,0.36159 3.068034,-1.209 0.18697,-1.87773 -3.229544,-4.83965 -2.332264,-6.40574 0.42851,-0.74791 1.67779,-1.20404 2.382884,-1.64323 2.04503,-1.2738 4.33176,-3.59572 6.61071,-4.34011 2.24462,-0.73316 4.57473,7.17274 7.215823,4.07328 1.77411,-2.08203 -2.081733,-5.78282 -3.507783,-7.02901 v -0.26459 c 2.195803,-1.52858 4.086013,-3.51683 5.973143,-5.403949 0.70878,-0.70878 1.6877,-2.20343 2.75811,-2.3298 2.28685,-0.27001 4.35448,5.573259 7.02901,3.304019 3.28063,-2.783469 -4.70903,-5.188079 -3.70967,-7.480389 1.04504,-2.39709 3.49963,-4.67418 4.97094,-6.87529 0.40018,-0.59867 1.02118,-1.97591 1.88679,-1.93722 2.1563,0.0964 4.11551,3.75112 6.47719,2.63624 4.11575,-1.94293 -3.15223,-5.67104 -4.74801,-6.25527 l 5.02709,-11.1125 c 1.95199,0.53281 4.84196,2.51031 6.87508,1.99785 1.45877,-0.3677 1.92473,-2.07493 0.8897,-3.15193 -1.31419,-1.367494 -4.38429,-2.060684 -6.17728,-2.550094 0.82817,-2.54518 1.63282,-5.074422 2.28244,-7.672915 0.24641,-0.985663 0.32977,-2.810342 1.08793,-3.540643 1.37547,-1.324919 4.8941,0.914754 6.67216,0.302759 1.59618,-0.549393 1.61265,-2.550571 0.2607,-3.393034 -1.59818,-0.995909 -4.48488,-1.071599 -6.33448,-1.306582 l 1.05833,-12.170832 c 1.92743,0 4.80339,0.536934 6.60295,-0.196395 1.49221,-0.608086 1.67542,-2.656524 0.24743,-3.460407 -1.77834,-1.001118 -5.21017,0.73781 -6.65399,-0.736179 -0.73535,-0.750722 -0.61016,-2.556611 -0.79456,-3.544519 -0.48231,-2.583862 -1.71284,-4.884763 -2.31225,-7.408333 1.72313,-0.627247 4.25687,-1.786745 5.44131,-3.223995 0.97631,-1.184691 0.38112,-2.917563 -1.20899,-3.075378 -1.97875,-0.196386 -4.81052,3.381342 -6.43738,2.58949 -0.93369,-0.454462 -1.62011,-1.888378 -2.31674,-2.640116 -1.51443,-1.634227 -3.84057,-2.999543 -5.12427,-4.763518 -1.34284,-1.8452598 5.41831,-6.8400048 1.1743,-8.2576188 -2.33692,-0.780596 -4.41799,4.218162 -5.02198,5.877387 -2.52357,-0.599406 -4.82448,-1.829935 -7.40833,-2.312246 -0.98795,-0.184412 -2.79378,-0.05919 -3.54452,-0.794565 -1.59474,-1.562106 1.3431,-7.930919 -2.54008,-7.651891 -3.656473,0.262735 -0.58656,5.99592 -2.277133,7.651891 -0.75144,0.736058 -2.55597,0.608829 -3.54452,0.794565 -2.5758,0.483958 -4.89033,1.714164 -7.40833,2.312246 m 11.37708,1.1338698 c 3.323343,-0.393395 6.900563,0.205696 10.054173,1.247582 2.477,0.818344 4.73185,1.963333 6.87916,3.446115 16.16651,11.163401 11.27304,35.162524 5.54217,50.793262 -11.98296,32.683124 -43.281568,54.570903 -77.773421,56.081253 -7.321987,0.32062 -14.331694,-0.12994 -20.372915,-4.72534 -10.39439,-7.90674 -10.728897,-24.317449 -1.322713,-33.075779 6.914028,-6.43781 14.869443,-4.86825 23.283128,-6.75096 8.712453,-1.94955 16.561723,-7.12263 21.990223,-14.175004 3.616801,-4.69873 6.209387,-10.290394 7.266243,-16.139584 0.906897,-5.019219 0.269258,-10.059455 0.981569,-15.08125 1.192385,-8.406366 6.925639,-15.599894 14.476553,-19.246191 2.83596,-1.369474 5.89139,-2.00662 8.99583,-2.374104 m -0.79375,4.006522 c -2.50229,0.358473 -4.88138,1.072334 -7.14375,2.204242 -1.83304,0.917111 -3.54454,2.096181 -5.027084,3.513698 -9.240669,8.835337 -5.349813,20.432852 -8.578952,31.474999 -1.22046,4.173405 -3.02387,7.981521 -5.362302,11.641668 -0.745133,1.16629 -2.050565,2.90931 -0.5502,4.07368 1.868983,1.450464 3.389756,-0.87978 4.254157,-2.2216 2.473105,-3.83901 4.373021,-8.04358 5.626271,-12.435415 0.964846,-3.381148 1.610536,-7.065726 1.696736,-10.583333 0.0984,-4.01831 -0.38027,-8.060206 1.07956,-11.906249 4.539664,-11.96017 19.754217,-15.748828 29.082937,-6.855484 5.18074,4.938951 5.78142,11.256507 5.31923,17.967984 -0.53432,7.758876 -2.06653,15.498253 -4.94522,22.754167 -9.77238,24.631944 -31.454939,43.259263 -57.520135,48.471623 -6.830332,1.36589 -15.925282,2.97407 -22.754165,0.99504 -11.028856,-3.19618 -13.822678,-17.695729 -4.497917,-24.519269 4.228503,-3.09427 8.863299,-2.46921 13.758333,-3.06251 5.341324,-0.6474 10.5385,-2.27358 15.345833,-4.67879 3.591374,-1.79685 7.1124,-4.1929 10.050084,-6.93225 1.130188,-1.05389 2.365368,-3.05007 0.476699,-4.14004 -1.518249,-0.87619 -3.140946,0.91313 -4.176784,1.8037 -3.348673,2.87905 -7.052573,5.21596 -11.112499,6.95327 -3.643657,1.55919 -7.691419,2.67218 -11.641666,3.05598 -6.187082,0.60112 -11.709302,0.4055 -16.668545,4.85335 -11.139342,9.99064 -5.013546,30.076629 10.318545,31.151209 34.639397,2.4278 67.966067,-18.257459 81.379387,-50.247153 1.15495,-2.75447 2.12109,-5.59757 2.94573,-8.466662 3.88447,-13.514856 7.18039,-32.344188 -6.53761,-41.445465 -1.86074,-1.234518 -3.92595,-2.200843 -6.08542,-2.770567 -2.80132,-0.739062 -5.84559,-1.063219 -8.731253,-0.649823 m 2.128303,8.024671 c -2.298653,0.86013 -0.988303,4.423906 1.29965,3.567789 2.2987,-0.860146 0.98826,-4.423898 -1.29965,-3.567789 m 11.90625,11.906249 c -2.29866,0.860122 -0.9883,4.423906 1.29965,3.567789 2.2987,-0.860146 0.98827,-4.423898 -1.29965,-3.567789 m -7.9375,7.9375 c -2.29865,0.860122 -0.9883,4.423914 1.29965,3.567789 2.2987,-0.860146 0.98826,-4.42389 -1.29965,-3.567789 M 91.441737,85.318171 c -2.43591,0.36858 -1.97374,4.06074 0.52386,3.70171 2.33421,-0.33554 1.82929,-4.05778 -0.52386,-3.70171 m -63.225003,13.22814 c -2.298683,0.86013 -0.988293,4.423889 1.299642,3.567789 2.298677,-0.86013 0.988298,-4.423899 -1.299642,-3.567789 m 7.9375,7.937499 c -2.298683,0.86013 -0.98829,4.42389 1.299644,3.56779 2.298676,-0.86013 0.988291,-4.4239 -1.299644,-3.56779 z"
       id="path1" /></g></svg>
