<?xml version="1.0" encoding="UTF-8" standalone="no"?>
<!-- Created with Inkscape (http://www.inkscape.org/) -->

<svg
   width="122.70139mm"
   height="112.98681mm"
   viewBox="0 0 122.70139 112.98681"
   version="1.1"
   id="svg1"
   xml:space="preserve"
   xmlns:inkscape="http://www.inkscape.org/namespaces/inkscape"
   xmlns:sodipodi="http://sodipodi.sourceforge.net/DTD/sodipodi-0.dtd"
   xmlns="http://www.w3.org/2000/svg"
   xmlns:svg="http://www.w3.org/2000/svg"><sodipodi:namedview
     id="namedview1"
     pagecolor="#505050"
     bordercolor="#eeeeee"
     borderopacity="1"
     inkscape:showpageshadow="0"
     inkscape:pageopacity="0"
     inkscape:pagecheckerboard="0"
     inkscape:deskcolor="#505050"
     inkscape:document-units="mm" /><defs
     id="defs1" /><g
     inkscape:label="Capa 1"
     inkscape:groupmode="layer"
     id="layer1"
     transform="translate(-29.293832,-176.50495)"><path
       style="fill:#000000"
       d="m 32.303903,289.05456 c -3.767441,-1.74427 -3.961349,-6.70465 -0.330798,-8.46217 2.595619,-1.25651 5.562261,-0.11253 6.567984,2.53272 0.226821,0.59659 0.313685,0.61023 3.885558,0.61023 3.653549,0 3.653549,0 12.772693,-9.38695 9.119144,-9.38695 9.119144,-9.38695 11.963415,-9.39271 2.844271,-0.006 2.844271,-0.006 2.844271,-4.50367 0,-4.49792 0,-4.49792 -2.460075,-4.49792 -2.460076,0 -2.460076,0 -11.443229,9.24941 -8.983153,9.24942 -8.983153,9.24942 -13.130517,9.26042 -4.147363,0.011 -4.147363,0.011 -4.7625,1.12524 -2.035735,3.68747 -7.385949,3.1123 -8.679222,-0.93305 -1.746862,-5.46417 6.63442,-8.43989 8.893973,-3.15775 0.36784,0.8599 0.36784,0.8599 4.005431,0.8599 3.637592,0 3.637592,0 12.762595,-9.39 9.125002,-9.39 9.125002,-9.39 11.969273,-9.39271 2.844271,-0.003 2.844271,-0.003 2.844271,-4.50063 0,-4.49791 0,-4.49791 -2.461723,-4.49791 -2.461723,0 -2.461723,0 -11.443229,9.24742 -8.981505,9.24742 -8.981505,9.24742 -13.252301,9.26041 -4.270796,0.013 -4.270796,0.013 -4.435546,0.66941 -1.036246,4.12874 -7.909016,3.55398 -8.878018,-0.74245 -1.217713,-5.39918 6.229151,-7.97053 8.75435,-3.02281 0.50639,0.99218 0.50639,0.99218 4.139033,0.99209 3.632643,-1e-4 3.632643,-1e-4 12.760768,-9.39136 9.128124,-9.39126 9.128124,-9.39126 11.972395,-9.39261 2.844271,-0.001 2.844271,-0.001 2.844271,-4.49927 0,-4.49791 0,-4.49791 -15.676562,-4.49109 -15.676561,0.007 -15.676561,0.007 -16.162446,1.06058 -1.776042,3.85176 -7.952206,2.82604 -8.755152,-1.45403 -0.940718,-5.01445 6.633446,-7.66344 8.755152,-3.06203 0.485885,1.05375 0.485885,1.05375 16.162446,1.06058 15.676562,0.007 15.676562,0.007 15.676562,-3.56505 0,-3.57187 0,-3.57187 -2.844271,-3.57322 -2.844271,-10e-4 -2.844271,-10e-4 -11.972395,-9.39262 -9.128125,-9.39126 -9.128125,-9.39126 -12.760768,-9.39135 -3.632643,-1e-4 -3.632643,-1e-4 -4.139033,0.99209 -1.729499,3.38867 -6.262898,3.62733 -8.137591,0.42841 -2.402512,-4.09957 1.788788,-8.61739 6.097666,-6.57269 0.951578,0.45155 2.270977,2.02019 2.270977,2.69997 0,0.25658 1.010883,0.33854 4.299479,0.34859 4.299479,0.0131 4.299479,0.0131 13.419934,9.40216 9.120455,9.38902 9.120455,9.38902 11.377083,9.31342 2.256627,-0.0756 2.256627,-0.0756 2.329021,-4.63965 0.07239,-4.56407 0.07239,-4.56407 -2.778125,-4.56678 -2.850519,-0.003 -2.850519,-0.003 -11.975521,-9.39271 -9.125003,-9.38999 -9.125003,-9.38999 -12.762595,-9.38999 -3.637591,0 -3.637591,0 -4.005431,0.85989 -2.267413,5.30052 -10.446538,2.41599 -8.892085,-3.13597 1.133384,-4.04805 6.635426,-4.65348 8.677334,-0.95483 0.615137,1.11424 0.615137,1.11424 4.7625,1.12524 4.147364,0.011 4.147364,0.011 13.130517,9.26042 8.983153,9.24941 8.983153,9.24941 11.443229,9.24941 2.460075,0 2.460075,0 2.460075,-4.49791 0,-4.49792 0,-4.49792 -2.844271,-4.50368 -2.844271,-0.006 -2.844271,-0.006 -11.963415,-9.3927 -9.119144,-9.38696 -9.119144,-9.38696 -12.772693,-9.38696 -3.571873,0 -3.658737,0.0136 -3.885558,0.61023 -1.703379,4.48023 -8.299183,3.81481 -9.156022,-0.92371 -0.913585,-5.05233 6.325872,-7.44542 8.825638,-2.91742 0.615137,1.11424 0.615137,1.11424 4.7625,1.12159 4.147364,0.007 4.147364,0.007 13.134797,9.26042 8.987432,9.25306 8.987432,9.25306 11.443228,9.25306 2.455796,0 2.455796,0 2.455796,-3.44647 0,-3.44648 0,-3.44648 4.034895,-3.37344 4.034896,0.073 4.034896,0.073 4.109993,2.91731 0.0751,2.84427 0.0751,2.84427 2.69146,2.84427 2.616363,0 2.616363,0 2.940592,-0.98243 2.004486,-6.07365 12.375121,-6.01206 14.580422,0.0866 0.32394,0.89584 0.32394,0.89584 3.048912,0.89584 2.72497,0 2.72497,0 2.72497,-2.91041 0,-2.91042 0,-2.91042 3.96875,-2.91042 3.96875,0 3.96875,0 3.96875,3.43958 0,3.43959 0,3.43959 2.05892,3.43959 2.05892,0 2.05892,0 11.04636,-9.25307 8.98743,-9.25306 8.98743,-9.25306 13.13479,-9.26041 4.14737,-0.007 4.14737,-0.007 4.7625,-1.1216 2.48582,-4.50273 9.7395,-2.12994 8.83102,2.88877 -0.84984,4.69478 -7.45632,5.46983 -9.11854,1.06974 -0.27487,-0.7276 -0.27487,-0.7276 -3.92842,-0.7276 -3.65355,0 -3.65355,0 -12.77269,9.38695 -9.11915,9.38695 -9.11915,9.38695 -11.56654,9.39271 -2.4474,0.006 -2.4474,0.006 -2.4474,4.50367 0,4.49792 0,4.49792 2.0632,4.49792 2.0632,0 2.0632,0 11.04636,-9.24941 8.98315,-9.24942 8.98315,-9.24942 13.13051,-9.26042 4.14737,-0.011 4.14737,-0.011 4.7625,-1.12524 2.04191,-3.69865 7.54395,-3.09323 8.67734,0.95483 1.55445,5.55195 -6.62467,8.43649 -8.89209,3.13597 -0.36784,-0.8599 -0.36784,-0.8599 -4.00543,-0.8599 -3.63759,0 -3.63759,0 -12.76259,9.39 -9.12501,9.39 -9.12501,9.39 -11.57865,9.39271 -2.45364,0.003 -2.45364,0.003 -2.38125,4.56677 0.0724,4.56406 0.0724,4.56406 1.93238,4.64063 1.85998,0.0766 1.85998,0.0766 10.9802,-9.31131 9.12023,-9.38787 9.12023,-9.38787 13.41971,-9.40312 3.28748,-0.0117 4.29948,-0.0942 4.29948,-0.35072 0,-0.67978 1.3194,-2.24841 2.27098,-2.69996 4.30865,-2.0446 8.50005,2.47332 6.09766,6.57269 -1.87469,3.19892 -6.40809,2.96025 -8.13759,-0.42842 -0.50639,-0.99218 -0.50639,-0.99218 -4.13903,-0.99083 -3.63265,10e-4 -3.63265,10e-4 -12.76077,9.39261 -9.12813,9.39126 -9.12813,9.39126 -11.57552,9.39136 -2.4474,9e-5 -2.4474,9e-5 -2.4474,3.57197 0,3.57187 0,3.57187 15.31715,3.57187 15.31715,0 15.31715,0 15.48023,-0.59531 1.11454,-4.06869 7.75716,-3.61218 8.89442,0.61126 1.39594,5.18415 -6.41001,8.28314 -8.64654,3.43271 -0.48588,-1.05376 -0.48588,-1.05376 -15.76557,-1.06058 -15.27969,-0.007 -15.27969,-0.007 -15.27969,4.49109 0,4.49791 0,4.49791 2.4474,4.49801 2.44739,10e-5 2.44739,10e-5 11.57552,9.39136 9.12812,9.39126 9.12812,9.39126 12.75935,9.39261 3.63123,10e-4 3.63123,10e-4 4.0668,-0.85854 2.33795,-4.6155 8.89949,-3.19869 8.89949,1.92163 0,3.45866 -3.57544,5.61382 -6.78591,4.09035 -0.95158,-0.45155 -2.27098,-2.02019 -2.27098,-2.69996 0,-0.25651 -1.01191,-0.33901 -4.29948,-0.35056 -4.29948,-0.0151 -4.29948,-0.0151 -13.27966,-9.26042 -8.98019,-9.24531 -8.98019,-9.24531 -11.04636,-9.24531 -2.06617,0 -2.06617,0 -2.06617,4.49791 0,4.49792 0,4.49792 2.4474,4.50063 2.44739,0.003 2.44739,0.003 11.5724,9.39271 9.125,9.39 9.125,9.39 12.76259,9.39 3.63759,0 3.63759,0 4.00543,-0.8599 2.25956,-5.28214 10.64084,-2.30642 8.89398,3.15775 -1.29328,4.04535 -6.64349,4.62052 -8.67923,0.93305 -0.61513,-1.11424 -0.61513,-1.11424 -4.7625,-1.12524 -4.14736,-0.011 -4.14736,-0.011 -13.13051,-9.26042 -8.98316,-9.24941 -8.98316,-9.24941 -11.04636,-9.24941 -2.0632,0 -2.0632,0 -2.0632,4.49792 0,4.49791 0,4.49791 2.4474,4.50367 2.44739,0.006 2.44739,0.006 11.56654,9.39271 9.11914,9.38695 9.11914,9.38695 12.76259,9.38695 3.64345,0 3.64345,0 4.01129,-0.8599 2.30314,-5.38403 10.88174,-2.12609 8.79428,3.33985 -1.50645,3.94458 -6.57167,4.38793 -8.57953,0.75095 -0.61513,-1.11423 -0.61513,-1.11423 -4.7625,-1.12159 -4.14736,-0.007 -4.14736,-0.007 -13.13479,-9.26041 -8.98744,-9.25307 -8.98744,-9.25307 -11.04636,-9.25307 -2.05892,0 -2.05892,0 -2.05892,2.51354 0,2.51355 0,2.51355 -3.96875,2.51355 -3.96875,0 -3.96875,0 -3.96875,-2.91042 0,-2.91042 0,-2.91042 -2.72497,-2.91042 -2.724972,0 -2.724972,0 -3.048912,0.89584 -2.241007,6.1974 -12.56183,6.20298 -14.60639,0.008 -0.298261,-0.90374 -0.298261,-0.90374 -2.914624,-0.90374 -2.616363,0 -2.616363,0 -2.69146,2.84427 -0.0751,2.84427 -0.0751,2.84427 -4.109993,2.91731 -4.034895,0.073 -4.034895,0.073 -4.034895,-2.44739 0,-2.52044 0,-2.52044 -2.455796,-2.52044 -2.455796,0 -2.455796,0 -11.443228,9.25307 -8.987433,9.25306 -8.987433,9.25306 -13.149243,9.26041 -4.16181,0.007 -4.16181,0.007 -4.6682,0.99954 -1.199248,2.34973 -3.695202,3.27128 -5.986656,2.21037 z M 84.00571,260.71284 c 2.80098,-5.89968 12.171204,-5.61853 14.358678,0.43083 0.32394,0.89584 0.32394,0.89584 3.052582,0.89584 2.72863,0 2.72863,0 2.65882,-8.53281 -0.0698,-8.53282 -0.0698,-8.53282 -2.61397,-8.60812 -2.544159,-0.0753 -2.544159,-0.0753 -3.25175,1.37097 -2.922238,5.97284 -11.274685,5.88964 -14.331533,-0.14276 -0.651259,-1.2852 -0.651259,-1.2852 -3.160344,-1.2852 -2.509084,0 -2.509084,0 -2.509084,8.59896 0,8.59896 0,8.59896 2.58337,8.59896 2.58337,0 2.58337,0 3.213231,-1.32667 z m -0.287298,-21.00042 c 2.234409,-6.17915 12.007693,-6.37272 14.510144,-0.28739 0.48576,1.18124 0.48576,1.18124 3.197734,1.18224 2.71198,9.9e-4 2.71198,9.9e-4 2.71198,-8.59797 0,-8.59896 0,-8.59896 -2.71566,-8.59896 -2.71566,0 -2.71566,0 -3.34552,1.32667 -2.723298,5.73605 -11.146512,5.81052 -13.929088,0.12314 -0.709325,-1.44981 -0.709325,-1.44981 -3.324109,-1.44981 -2.614784,0 -2.614784,0 -2.614784,8.59896 0,8.59896 0,8.59896 2.592681,8.59896 2.592682,0 2.592682,0 2.916622,-0.89584 z m 0.241095,-21.69666 c 2.966231,-6.10539 12.320687,-5.93771 14.365294,0.25751 0.298261,0.90374 0.298261,0.90374 3.055869,0.90374 2.7576,0 2.7576,0 2.7576,-8.59896 0,-8.59896 0,-8.59896 -2.72497,-8.59896 -2.724972,0 -2.724972,0 -3.077308,0.97437 -2.221224,6.14269 -12.543921,6.09268 -14.577994,-0.0706 -0.298261,-0.90374 -0.298261,-0.90374 -2.923575,-0.90374 -2.625314,0 -2.625314,0 -2.625314,8.59896 0,8.59896 0,8.59896 2.593111,8.59896 2.59311,0 2.59311,0 3.157287,-1.16125 z"
       id="path1" /></g></svg>
