<?xml version="1.0" encoding="UTF-8" standalone="no"?>
<!-- Created with Inkscape (http://www.inkscape.org/) -->

<svg
   width="135.3821mm"
   height="133.51495mm"
   viewBox="0 0 135.3821 133.51495"
   version="1.1"
   id="svg1"
   xml:space="preserve"
   xmlns="http://www.w3.org/2000/svg"
   xmlns:svg="http://www.w3.org/2000/svg"><defs
     id="defs1" /><g
     id="layer1"
     transform="translate(-38.206864,-138.76156)"><path
       style="fill:#0b0708;stroke:none"
       d="m 56.979702,234.10619 v 0.26458 c -2.455356,1.80718 -3.958912,5.51725 -6.638264,6.92878 -0.867092,0.4568 -1.985396,-0.17043 -2.886736,-0.26826 -1.689633,-0.18339 -3.528815,0.053 -5.027083,0.88787 -5.697399,3.17471 -5.536986,11.86489 0.529167,14.53676 2.267808,0.99887 5.24111,0.97283 7.408333,-0.2656 0.964959,-0.55141 2.07549,-2.21963 3.250536,-2.13157 1.60619,0.12037 3.447216,1.27091 4.951547,1.82758 3.982173,1.47361 7.93782,3.01629 11.90625,4.52589 1.88287,0.71625 5.6479,1.39772 6.9841,2.93022 0.71953,0.82524 0.61702,2.53708 0.96402,3.57208 0.87672,2.61502 3.07564,4.66648 5.81021,5.20857 5.19141,1.02914 11.02082,-3.25025 9.78958,-8.91274 2.58697,-0.61305 6.221988,-1.7115 8.437878,-3.19479 1.32305,-0.88564 1.38832,-2.87814 -0.2409,-3.48409 -2.382768,-0.88624 -6.613468,2.14678 -8.990728,2.71013 3.24945,-3.71952 6.52378,-7.41873 9.802858,-11.1125 0.89702,-1.01046 2.33563,-3.44588 3.73581,-3.70886 1.49733,-0.28123 4.09948,1.27112 5.51133,1.77533 2.40587,0.85919 4.70866,1.21067 5.55625,3.78562 -2.86487,0.96919 -6.05182,1.94644 -8.72614,3.36241 -1.12016,0.59309 -1.81284,2.02541 -0.86705,3.13743 0.81713,0.96075 2.23616,0.54147 3.24319,0.19518 1.98302,-0.68192 5.23301,-2.84519 7.3328,-2.62338 1.01046,0.10674 1.87525,1.44382 2.72137,1.95722 1.75049,1.06216 4.08593,1.40513 6.08542,0.9779 2.53192,-0.54099 4.76122,-2.48429 5.69711,-4.8901 0.48415,-1.24456 0.26689,-3.38694 1.48583,-4.15984 2.59141,-1.64312 6.33137,-2.39958 9.22122,-3.43162 4.50242,-1.60792 8.92344,-3.57933 13.49273,-4.98727 1.62062,-0.49936 2.44475,1.1071 3.70519,1.86862 1.80448,1.09022 4.04031,1.44376 6.08541,0.94707 6.86632,-1.66756 8.74306,-11.23398 2.38125,-14.87485 -1.63748,-0.93713 -3.43388,-1.13958 -5.29166,-1.0028 -0.9587,0.0706 -2.11798,0.70779 -2.98494,0.10126 -2.56727,-1.79607 -4.09011,-5.02889 -6.54006,-7.00431 1.99763,-2.03974 4.12466,-5.86071 6.6595,-7.16254 1.63473,-0.83954 4.76631,0.57213 6.83425,-0.16638 5.80915,-2.07459 6.96475,-9.84266 2.38023,-13.7814 -1.60777,-1.3813 -3.71731,-2.03542 -5.81982,-1.88455 -0.95556,0.0686 -2.22579,0.74644 -3.15131,0.41199 -1.50663,-0.54442 -2.91684,-2.97602 -3.97263,-4.14004 -0.66262,-0.73055 -2.32701,-2.05596 -2.46189,-3.06271 -0.10036,-0.74911 0.9204,-1.48554 1.36109,-1.96457 1.32485,-1.44015 3.26868,-4.83327 5.20204,-5.38762 1.71158,-0.49076 4.09653,1.85713 5.39661,-0.4618 1.38765,-2.47515 -1.70549,-2.75627 -3.16664,-3.32178 -1.92786,-0.74614 -3.07198,-2.83944 -2.49537,-4.85152 0.90418,-3.15516 5.1155,-3.83352 7.04514,-1.29821 0.81116,1.06577 0.66163,2.91153 1.64937,3.74765 2.28838,1.93714 3.50949,-1.50043 3.0868,-3.24318 -1.15651,-4.76833 -6.28305,-7.46651 -10.87446,-5.69692 -1.32978,0.51252 -2.89686,2.55102 -4.24374,2.54151 -2.66357,-0.0188 -6.22701,-2.27813 -8.72084,-3.20786 -3.53798,-1.31901 -7.04244,-2.72928 -10.58333,-4.0398 -1.3043,-0.48273 -3.63321,-0.93169 -4.60285,-1.95354 -0.74286,-0.78286 -0.57926,-2.51002 -0.89379,-3.51839 -0.71503,-2.29236 -2.57795,-4.17785 -4.82211,-5.00239 -2.2548,-0.82844 -4.76282,-0.68796 -6.87917,0.47936 -1.06421,0.58699 -2.16129,2.14615 -3.43958,2.11442 -1.89411,-0.047 -4.3198,-1.47088 -6.08542,-2.14015 -4.03932,-1.53111 -8.11386,-2.97736 -12.17083,-4.46116 -1.451128,-0.53074 -4.678038,-1.10983 -5.552778,-2.44066 -1.31643,-2.00281 -0.47678,-6.458 -3.97202,-6.83161 -1.37561,-0.14703 -2.29045,1.1346 -1.99907,2.40719 0.65234,2.849 3.2163,6.62554 -1.7053,7.79622 -2.44027,0.58045 -5.26367,-1.80619 -4.92929,-4.35664 0.17496,-1.33446 1.29773,-2.18574 1.61343,-3.43958 0.21279,-0.84516 -0.16357,-1.6935 -0.93298,-2.10912 -3.76288,-2.03264 -4.01822,4.97517 -5.0179,6.53354 -0.48755,0.76002 -1.58626,0.94885 -2.37492,1.24411 -5.01743,1.87844 -10.068344,3.66556 -15.08125,5.55605 -1.824961,0.68823 -4.641886,2.36093 -6.590902,2.3098 -1.021953,-0.0268 -1.864108,-1.33258 -2.669718,-1.86413 -1.608819,-1.06153 -3.647414,-1.5253 -5.556046,-1.27494 -3.324495,0.43608 -5.964013,2.78127 -6.837111,6.00885 -1.152893,4.2619 1.544037,9.17825 6.043361,9.9672 1.664881,0.29193 4.006676,-0.77512 5.443965,-0.29786 1.563536,0.51918 5.901409,5.39963 6.242207,6.99941 0.181312,0.85112 -0.587381,1.54185 -1.089977,2.11667 -1.308182,1.49616 -3.261547,4.77081 -5.192245,5.41191 -1.242046,0.41243 -3.436426,-0.49529 -4.874783,-0.33889 -4.030005,0.43819 -6.947513,4.18955 -6.864876,8.15614 0.08361,4.01331 3.358427,7.62273 7.394042,7.91362 1.342315,0.0968 3.272888,-0.84611 4.474235,-0.41199 1.514152,0.54715 2.933268,2.96187 3.979161,4.14004 0.65821,0.74145 2.319912,2.05173 2.455357,3.06271 0.134791,1.0061 -1.902469,2.58623 -2.517419,3.28729 -1.005333,1.14608 -2.528539,3.63044 -4.045717,4.0649 -0.871788,0.24965 -2.12385,-0.49248 -3.0227,-0.57836 -2.279424,-0.2178 -4.725785,0.75947 -6.325297,2.35899 -4.183474,4.18347 -2.536244,11.62772 3.150297,13.45557 1.939331,0.62337 5.006979,-0.72606 6.461263,0.009 2.740327,1.38467 4.273288,5.31237 6.767903,7.14845 m 60.854158,-73.55416 -8.46666,3.35527 -3.16459,0.92746 -4.09145,-4.01815 -9.677298,-10.84791 c 1.96552,-0.38401 4.51366,1.10293 6.35,1.80124 4.564018,1.73558 9.147028,3.47264 13.758338,5.07792 2.36699,0.824 4.63104,1.08418 5.29166,3.70417 M 78.410952,149.9687 c -1.87645,4.02474 -6.51844,7.79461 -9.48111,11.1125 -0.89989,1.00777 -2.14245,3.13334 -3.507156,3.49573 -2.190974,0.5818 -6.885578,-2.27931 -8.972151,-3.07885 -0.882191,-0.33804 -2.246103,-0.76355 -2.017039,-1.9807 0.309646,-1.64532 4.366773,-2.36864 5.721206,-2.88326 6.03851,-2.29436 12.11465,-4.66366 18.25625,-6.66542 m 23.812498,16.66875 c -2.372938,0.91538 -6.678688,3.59504 -9.215508,3.29994 -0.91829,-0.10683 -1.68777,-1.19299 -2.42636,-1.68468 -1.32317,-0.88083 -2.89383,-1.46378 -4.49772,-1.46378 -3.00739,0 -4.45801,2.81555 -6.92408,3.15499 -2.49228,0.34305 -7.47311,-2.50874 -9.74466,-3.57106 l 8.97603,-10.31875 3.5043,-3.64047 3.65925,0.70596 3.96487,-0.20926 4.34949,4.46669 8.354388,9.26042 M 45.602619,155.61233 c 5.2108,-0.91537 6.78632,7.24011 1.5875,8.05815 -5.414402,0.85195 -6.964587,-7.11358 -1.5875,-8.05815 m 79.374991,0.003 c 5.0388,-0.94872 6.98724,6.82966 1.85209,8.00752 -5.38213,1.23451 -7.27639,-6.98622 -1.85209,-8.00752 m -71.437491,8.90559 8.995833,3.43958 -2.910417,3.70417 h -0.264583 c -1.620848,-1.99067 -5.229093,-4.66252 -5.820833,-7.14379 m 65.352081,0 -6.35,7.40833 h -0.26459 l -3.175,-3.70416 9.78959,-3.70417 m 14.2875,0 c 6.25116,2.42458 12.54481,4.74565 18.78541,7.19744 1.33793,0.52565 5.94026,1.39453 5.46704,3.36139 -0.39645,1.64775 -4.58257,2.39463 -5.99621,2.92165 -1.29121,0.48138 -3.92317,2.03613 -5.28779,1.53789 -1.29055,-0.47119 -2.41836,-2.36826 -3.29115,-3.37671 -2.23224,-2.57916 -4.49505,-5.14634 -6.78669,-7.67291 -0.90743,-1.00046 -2.92042,-2.5697 -2.89061,-3.96875 m -3.43959,2.38125 c 3.63931,4.77716 9.90297,9.12022 12.43542,14.55208 -2.82631,0.9212 -6.04448,2.89485 -8.99196,3.1991 -1.58006,0.16309 -3.40721,-2.36798 -5.03096,-2.87613 -2.16958,-0.67897 -4.12458,0.62129 -6.08541,0.22498 -1.89998,-0.38401 -4.23184,-3.88239 -5.44274,-5.31045 -0.42974,-0.50681 -1.10178,-1.14437 -1.14183,-1.85208 -0.0529,-0.93537 0.9752,-1.75966 1.53768,-2.38125 1.61648,-1.78637 3.39809,-3.58935 4.7823,-5.55625 2.98521,0.79804 4.9523,0.79804 7.9375,0 m -51.858328,8.99583 c -2.15159,0.5873 -4.26253,1.48194 -6.35,2.26917 -1.28411,0.48426 -3.68087,1.92092 -5.02606,1.22656 -1.155056,-0.5962 -4.193927,-3.68021 -3.905871,-5.08323 0.210204,-1.02383 1.346512,-1.90557 2.008875,-2.64583 0.596224,-0.66634 1.217526,-1.68409 2.161576,-1.87005 1.78578,-0.35177 5.1926,1.6963 6.87815,2.34919 2.23406,0.86536 4.22376,1.04962 4.23333,3.75419 m 16.13958,-0.26458 v -1.5875 l 7.672918,-3.12131 3.175,-0.89684 2.60091,2.16607 1.85291,2.64583 -1.76695,2.64583 -2.42249,2.12137 -3.1748,-0.95075 -7.937498,-3.0227 m -8.20208,-4.92358 c 5.33204,-0.40114 5.8364,7.89405 0.52917,8.30355 -5.35235,0.41298 -5.91493,-7.89837 -0.52917,-8.30355 m -23.018747,10.74441 -9.525,3.43958 5.820833,-7.14375 c 1.626326,0.4956 2.831158,2.30847 3.704167,3.70417 m 49.741665,-3.70417 6.08541,6.87917 -9.26041,-3.175 3.175,-3.70417 m -33.602088,1.85209 c -0.89393,1.91737 -2.76173,3.45279 -4.15779,5.02688 -0.48476,0.54657 -1.09729,1.53299 -1.92844,1.53299 -1.2682,0 -2.54478,-2.19982 -3.17418,-3.12029 l 9.26041,-3.43958 m 23.547918,3.43958 -3.176018,3.12029 -2.00336,-1.53299 -4.34562,-5.02688 9.524998,3.43958 m 56.09166,-3.43958 -4.30886,5.02688 -2.03726,1.53299 -3.17887,-3.12029 9.52499,-3.43958 m -76.464578,2.38125 c 1.33352,0.51353 2.77353,1.09435 4.23334,1.00199 1.30426,-0.0825 2.73018,-1.06238 3.96854,-0.3093 1.25299,0.76197 2.18007,2.215 3.16867,3.27606 0.77106,0.82756 2.86078,2.50697 2.86224,3.70416 9.8e-4,0.8052 -0.94041,1.55802 -1.42071,2.11667 -1.21985,1.41883 -3.29032,4.86435 -5.14957,5.34782 -1.04422,0.27153 -2.36031,-0.49478 -3.42917,-0.56042 -1.28379,-0.0788 -2.77187,0.83288 -3.96487,0.55388 -1.28282,-0.30001 -2.50935,-2.27505 -3.33118,-3.22461 -0.81233,-0.93858 -3.53184,-3.13325 -3.19603,-4.49792 0.628,-2.55206 4.66179,-5.31206 6.25874,-7.40833 m -16.943739,2.77118 c 1.117549,-0.013 1.923909,1.2368 2.581729,1.99132 0.62189,0.71331 2.13679,1.89391 2.13647,2.91041 -4.2e-4,1.30359 -3.40611,4.77082 -4.707787,4.80313 -2.587665,0.0642 -6.31731,-2.2409 -8.73125,-3.16479 -0.912097,-0.34909 -2.158961,-0.65874 -2.061953,-1.88005 0.09,-1.13313 1.456154,-1.39372 2.326537,-1.72245 2.440629,-0.92178 5.836156,-2.9071 8.456254,-2.93757 m 52.662487,3.8434 v 1.85208 l -11.64166,4.23334 -3.87729,-4.7625 2.06624,-3.175 2.09931,-1.93231 3.4159,0.85989 7.9375,2.9245 m 26.7219,-3.8434 c 1.09159,-0.0126 1.74021,1.00223 2.40208,1.72694 0.71207,0.77967 2.03107,1.83788 2.27385,2.91021 0.29234,1.29121 -3.17114,5.01668 -4.43401,5.12059 -2.44912,0.20151 -6.41359,-2.27721 -8.70757,-3.15622 -0.95134,-0.36454 -2.1585,-0.69148 -2.06195,-1.95395 0.0885,-1.15685 1.42702,-1.44505 2.32654,-1.77819 2.3734,-0.87897 5.66484,-2.84001 8.20106,-2.86938 m -99.482307,0.77926 c 5.243488,-1.30766 7.660121,6.5667 2.381249,7.94362 -5.06546,1.32126 -7.505557,-6.66569 -2.381249,-7.94362 m 79.639577,-0.006 c 5.22554,-1.1986 7.37289,6.6871 2.11667,7.95669 -5.13654,1.24068 -7.37713,-6.75009 -2.11667,-7.95669 m -45.772918,14.18314 -9.26041,-3.43958 c 0.62563,-0.94581 1.87285,-3.12029 3.17112,-3.12029 0.81362,0 1.42186,1.0016 1.89985,1.53299 1.45067,1.61268 3.0361,3.18299 4.18944,5.02688 m 23.547918,-3.43958 -9.260418,3.43958 c 1.08334,-1.87417 2.73037,-3.41129 4.158,-5.02688 0.48341,-0.54705 1.09796,-1.53299 1.92824,-1.53299 1.268188,0 2.544788,2.19982 3.174178,3.12029 m 55.82708,3.43958 -9.26041,-3.43958 3.17581,-3.12029 1.96355,1.53299 4.12105,5.02688 m -104.774991,-5.55625 9.260416,3.70417 -3.175815,3.12028 -1.963553,-1.53298 -4.121048,-5.29147 m 65.087491,0.26458 c -1.08334,1.87416 -2.73036,3.4113 -4.158,5.02689 -0.4834,0.54704 -1.09796,1.53298 -1.92823,1.53298 -1.2682,0 -2.54479,-2.19981 -3.17418,-3.12028 l 9.26041,-3.43959 m 23.54792,3.43959 c -0.62563,0.94581 -1.87284,3.12028 -3.17113,3.12028 -0.81361,0 -1.42186,-1.00161 -1.89985,-1.53298 -1.45066,-1.61269 -3.03608,-3.18301 -4.18944,-5.02689 l 9.26042,3.43959 m -12.43542,14.28749 c -1.33352,-0.51354 -2.77352,-1.09435 -4.23333,-1.00199 -1.30425,0.0825 -2.7302,1.06237 -3.96855,0.3093 -1.25298,-0.76198 -2.18007,-2.21499 -3.16867,-3.27606 -0.77104,-0.82756 -2.86077,-2.50697 -2.86223,-3.70416 -9.9e-4,-0.80519 0.94041,-1.55803 1.4207,-2.11667 1.21986,-1.41882 3.29033,-4.86434 5.14958,-5.34781 1.05163,-0.27346 2.35176,0.50531 3.42917,0.55755 1.27986,0.062 2.75237,-0.86661 3.96487,-0.55755 1.29143,0.32918 2.49702,2.26734 3.33118,3.23115 0.81232,0.93857 3.53183,3.13324 3.19603,4.49791 -0.628,2.55206 -4.66178,5.31206 -6.25875,7.40833 M 66.814202,199.65442 c 0.88364,-0.23843 2.05762,0.46642 2.8655,0.76538 2.35165,0.87021 4.87744,1.65439 7.12823,2.75791 0.76834,0.37671 1.29619,1.14021 0.91298,2.01642 -0.37733,0.86276 -1.68605,1.1172 -2.48496,1.39539 -2.44091,0.84995 -4.89048,2.11275 -7.40833,2.69749 -1.63851,0.38052 -5.237366,-3.17052 -5.237366,-4.81415 0,-1.24257 3.057723,-4.50377 4.223946,-4.81844 m 38.848828,-0.20864 3.87729,4.76249 -2.06624,3.175 -2.09932,1.93231 -3.4159,-0.8607 -7.937498,-2.92369 v -1.85208 l 11.641668,-4.23333 m 40.74583,0.2458 c 2.35735,-0.4757 7.03261,2.38002 9.26022,3.24482 0.91601,0.35561 2.07253,0.77697 1.76307,2.0103 -0.25808,1.02855 -1.70801,1.25824 -2.55662,1.56137 -2.50233,0.89385 -5.28813,2.49103 -7.92709,2.83937 -1.33361,0.17603 -2.30523,-1.3431 -3.07313,-2.22875 -0.57839,-0.66709 -1.90996,-1.68913 -1.90965,-2.64583 4e-4,-1.25908 3.23661,-4.5378 4.4432,-4.78128 m -61.118748,0.89991 c 5.22743,-0.91828 6.86651,7.23428 1.5875,8.05815 -5.27839,0.82378 -6.97013,-7.1126 -1.5875,-8.05815 m 79.639578,8.2e-4 c 5.09673,-0.84946 6.4818,7.26863 1.32292,8.05712 -5.33579,0.81554 -6.63361,-7.17201 -1.32292,-8.05712 m -102.129155,10.49513 -9.525,3.43958 4.30887,-5.02688 2.03725,-1.53299 3.17888,3.12029 m 56.091665,3.43958 -9.525,-3.43958 3.17601,-3.12029 2.00337,1.53299 4.34562,5.02688 m 23.28333,-3.43958 -9.26042,3.43958 c 0.8877,-1.90403 2.74408,-3.45048 4.12105,-5.02688 0.4862,-0.55661 1.12728,-1.53299 1.96437,-1.53299 1.26896,0 2.5452,2.19923 3.175,3.12029 m -62.970828,-1.85208 c -1.26591,1.91375 -2.92308,3.62056 -4.49139,5.29146 -0.45498,0.48475 -1.11932,1.53299 -1.87188,1.53299 -1.19452,0 -2.72099,-2.43953 -3.16173,-3.38487 l 9.525,-3.43958 m 14.02291,0 9.260418,3.43958 c -0.4867,0.93819 -1.98411,3.38487 -3.188268,3.38487 -0.76954,0 -1.40197,-1.03698 -1.86147,-1.53299 -1.28812,-1.39043 -3.86586,-3.39106 -4.21068,-5.29146 m 65.352078,0 c -1.18971,2.29336 -4.26579,6.03927 -6.61458,7.14375 l -2.91041,-3.70417 9.52499,-3.43958 m -61.912488,10.05416 v 0.26459 l -6.61459,7.67291 c -2.99814,-0.80148 -4.94915,-0.81536 -7.9375,0 -1.4066,-1.8464 -3.04278,-3.54513 -4.57325,-5.29166 -0.56045,-0.63958 -1.65424,-1.45587 -1.68916,-2.38125 -0.0471,-1.24696 1.74075,-2.59352 2.48291,-3.43959 0.97267,-1.10884 2.53824,-3.67476 4.04797,-3.98753 1.24723,-0.2584 2.87639,0.60101 4.22945,0.53733 1.03584,-0.0487 2.43207,-0.86241 3.4159,-0.46241 2.47857,1.00772 4.79411,5.16073 6.63827,7.08761 m -26.45833,0 c -0.90954,1.375 -3.03318,4.74209 -4.763525,4.99217 -1.823359,0.26354 -4.920398,-1.62743 -6.613562,-2.29264 -1.135809,-0.44623 -4.325679,-0.97985 -4.443203,-2.45944 -0.09924,-1.24934 1.123465,-1.58314 2.061953,-1.93967 2.194137,-0.83355 4.399352,-1.66689 6.614583,-2.4429 0.768078,-0.26907 1.819398,-0.85745 2.641954,-0.55713 1.72773,0.63079 3.24608,3.38756 4.5018,4.69961 m 47.624988,-0.79375 v 1.5875 l -8.20208,3.3275 -3.17398,0.81152 -4.49894,-4.66818 c 0.97335,-1.47148 2.7896,-4.34808 4.49894,-4.9642 0.95816,-0.34538 2.29097,0.447 3.17398,0.7817 2.70135,1.02395 5.64655,1.77756 8.20208,3.12416 m 16.13959,-0.26458 c 2.15159,-0.5873 4.26253,-1.48194 6.35,-2.26917 1.28412,-0.48427 3.68085,-1.92092 5.02606,-1.22656 1.11507,0.57557 4.0111,3.48461 3.90199,4.81865 -0.0899,1.09946 -1.52466,2.13318 -2.20119,2.91041 -0.59161,0.67967 -1.26282,1.67905 -2.22895,1.81717 -1.83663,0.2626 -4.89376,-1.68941 -6.61458,-2.33306 -2.24549,-0.8399 -4.22372,-1.00247 -4.23333,-3.71744 M 45.867203,215.1405 c 5.400136,-0.70349 6.232042,7.74627 0.793749,8.29212 -5.279623,0.52992 -6.045051,-7.608 -0.793749,-8.29212 m 79.374997,0.007 c 5.30528,-0.81052 6.38684,7.45901 1.05833,8.24128 -5.27986,0.77512 -6.37409,-7.42916 -1.05833,-8.24128 m -52.122918,7.31728 5.82083,7.14375 -9.26041,-3.43958 3.43958,-3.70417 m 26.45833,0 2.910418,3.70417 -9.524998,3.43958 6.08542,-7.14375 h 0.52916 m 59.002078,7.14375 -9.52499,-3.43958 2.91041,-3.70417 c 2.47818,1.25468 5.03409,4.87336 6.61458,7.14375 m -105.039571,-5.55625 9.260416,3.43959 -2.910417,3.70416 c -1.943736,-0.9471 -5.859869,-5.01875 -6.349999,-7.14375 m 65.352081,0 c -1.30833,1.87943 -2.94801,3.60523 -4.49792,5.29147 -0.44848,0.48793 -1.11472,1.53299 -1.86536,1.53299 -1.19451,0 -2.721,-2.43954 -3.16172,-3.38487 l 9.525,-3.43959 m 23.28333,3.43959 c -1.73472,3.72522 -5.92916,6.95505 -8.61897,10.05416 -1.02456,1.18048 -2.34144,3.32641 -3.81746,3.93384 -1.15886,0.47691 -2.95238,-0.5257 -4.23232,-0.48282 -1.12459,0.0377 -2.64312,0.9235 -3.70029,0.48282 -2.41932,-1.00849 -4.89997,-5.14175 -6.61846,-7.10884 1.32908,-2.00926 4.52799,-6.85263 6.87937,-7.56532 1.82685,-0.55371 3.97455,0.8475 6.08521,0.12942 1.52292,-0.51811 3.2979,-2.78688 4.78618,-2.75668 2.99508,0.0608 6.34464,2.52239 9.23674,3.31342 m -32.27917,6.61458 v 0.26458 l -4.49812,4.70636 -3.17479,-0.72433 -8.202088,-3.18828 v -1.5875 l 8.202088,-3.25931 3.16458,-0.86643 4.50833,4.65491 m 22.75417,10.31875 c 2.77526,-3.98668 6.51092,-7.4899 9.74569,-11.1125 0.97124,-1.08769 2.34654,-3.40026 3.77174,-3.86116 0.86699,-0.28038 2.09575,0.42908 2.88674,0.73985 2.10976,0.82888 4.24726,1.58694 6.34999,2.43331 0.87728,0.35312 2.24726,0.76403 2.01705,1.98723 -0.30965,1.64532 -4.36677,2.36865 -5.72121,2.88326 -6.23874,2.37042 -12.61362,5.17314 -19.05,6.93001 m -66.145828,-5.02709 c -0.939121,-1.33843 -3.793327,-3.3724 -3.887701,-5.02708 -0.05802,-1.01722 1.139717,-1.97155 1.751231,-2.64583 0.680429,-0.75027 1.375306,-1.89897 2.40207,-2.1969 2.06072,-0.59796 6.2407,1.98194 8.20107,2.71279 1.11378,0.41524 3.9604,1.21826 2.63848,3.00331 -1.04067,1.40526 -4.73629,2.00816 -6.34265,2.61705 -1.53843,0.58315 -3.13297,1.2926 -4.7625,1.53666 m 18.52083,-8.9058 c 5.39567,-1.04182 7.24731,6.85948 1.85208,8.00855 -5.11189,1.08872 -7.01259,-7.01213 -1.85208,-8.00855 m 79.374998,0.0143 c 5.34764,-1.227 7.26796,6.77121 1.85208,7.9567 -4.95654,1.08493 -6.74616,-6.83377 -1.85208,-7.9567 m -104.774995,6.77485 3.175,3.70416 -9.525,3.43959 6.35,-7.14375 m 59.266665,7.14375 -9.525,-3.43959 2.91041,-3.70416 c 2.4728,1.25196 5.09337,4.84402 6.61459,7.14375 m -16.40417,-1.85209 -8.687358,10.05417 -3.75194,3.93669 -3.96487,-0.44974 -3.96772,0.44974 -3.78053,-3.93669 -8.65591,-10.05417 c 2.12729,-0.94742 7.23238,-3.79737 9.525,-3.23114 2.55666,0.63144 3.80756,3.21032 6.87916,3.21032 3.0574,0 4.31857,-2.58104 6.87917,-3.21032 2.27097,-0.5581 7.409468,2.28896 9.524998,3.23114 m -23.283328,16.93334 c -6.33734,-2.06558 -12.56897,-4.68581 -18.785417,-7.09374 -1.385843,-0.5368 -5.601238,-1.38663 -5.996201,-2.99146 -0.32811,-1.33319 1.077931,-1.67285 2.027451,-2.0348 2.098299,-0.79985 6.806834,-3.55184 8.995833,-3.01719 1.621194,0.39596 3.083984,2.82344 4.121254,4.02469 3.16449,3.66477 6.90367,7.11495 9.63708,11.1125 M 45.338036,245.05822 c 5.168571,-1.1624 7.274774,6.81013 2.116666,7.99365 -5.276958,1.21078 -7.458511,-6.79228 -2.116666,-7.99365 m 79.374994,2.1e-4 c 5.20595,-1.19412 7.38164,6.78579 2.11667,7.99344 -5.20594,1.1941 -7.38164,-6.7858 -2.11667,-7.99344 m -31.485418,14.18317 -0.26458,0.26459 0.26458,-0.26459 m -7.67291,0.8846 c 5.27529,-0.78899 6.34248,7.41728 1.05833,8.20148 -5.30532,0.78734 -6.41713,-7.4 -1.05833,-8.20148 z"
       id="path1" /></g></svg>
