<?xml version="1.0" encoding="UTF-8" standalone="no"?>
<!-- Created with Inkscape (http://www.inkscape.org/) -->

<svg
   width="67.912781mm"
   height="67.912773mm"
   viewBox="0 0 67.912781 67.912773"
   version="1.1"
   id="svg1"
   xml:space="preserve"
   xmlns:inkscape="http://www.inkscape.org/namespaces/inkscape"
   xmlns:sodipodi="http://sodipodi.sourceforge.net/DTD/sodipodi-0.dtd"
   xmlns="http://www.w3.org/2000/svg"
   xmlns:svg="http://www.w3.org/2000/svg"><sodipodi:namedview
     id="namedview1"
     pagecolor="#505050"
     bordercolor="#eeeeee"
     borderopacity="1"
     inkscape:showpageshadow="0"
     inkscape:pageopacity="0"
     inkscape:pagecheckerboard="0"
     inkscape:deskcolor="#505050"
     inkscape:document-units="mm" /><defs
     id="defs1" /><g
     inkscape:label="Capa 1"
     inkscape:groupmode="layer"
     id="layer1"
     transform="translate(-65.256143,-118.08236)"><g
       id="g1"
       transform="matrix(0.26458333,0,0,0.26458333,39.312983,86.55359)"><path
         d="m 226.392,374.823 c 70.317,0 127.32,-57.003 127.32,-127.32 0,-70.317 -57.003,-127.32 -127.32,-127.32 -70.317,0 -127.32,57.003 -127.32,127.32 0,70.317 57.003,127.32 127.32,127.32 z"
         stroke="#ffffff"
         stroke-width="2.03822"
         id="path1"
         style="fill:none;fill-opacity:1" /><path
         d="m 226.711,311.307 c 35.414,0 64.123,-28.709 64.123,-64.123 0,-35.414 -28.709,-64.123 -64.123,-64.123 -35.414,0 -64.123,28.709 -64.123,64.123 0,35.414 28.709,64.123 64.123,64.123 z"
         stroke="#ffffff"
         stroke-width="2.03822"
         id="path2"
         style="fill:none" /><path
         d="m 225.62,286.766 c 21.828,0 39.524,-17.696 39.524,-39.524 0,-21.828 -17.696,-39.524 -39.524,-39.524 -21.828,0 -39.524,17.696 -39.524,39.524 0,21.828 17.696,39.524 39.524,39.524 z"
         stroke="#ffffff"
         stroke-width="2.03822"
         id="path3"
         style="fill:none" /><path
         d="m 254.243,224.267 c 2.198,0 3.979,-1.781 3.979,-3.979 0,-2.197 -1.781,-3.979 -3.979,-3.979 -2.197,0 -3.978,1.782 -3.978,3.979 0,2.198 1.781,3.979 3.978,3.979 z"
         fill="#ffffff"
         id="path4" /><path
         d="m 282.89,220.447 c 2.198,0 3.979,-1.781 3.979,-3.978 0,-2.198 -1.781,-3.979 -3.979,-3.979 -2.197,0 -3.978,1.781 -3.978,3.979 0,2.197 1.781,3.978 3.978,3.978 z"
         fill="#ffffff"
         id="path5" /></g></g></svg>
